<svg xmlns="http://www.w3.org/2000/svg" width="1200" height="630" viewBox="0 0 1200 630">
<rect width="1200" height="630" fill="#0b1119"/>
<defs><pattern id="grid" width="28" height="28" patternUnits="userSpaceOnUse"><circle cx="2" cy="2" r="1" fill="#263c4b"/></pattern></defs>
<rect x="775" width="425" height="630" fill="url(#grid)"/>
<text x="68" y="85" font-family="Arial,sans-serif" font-size="19" letter-spacing="2" fill="#a2b7c7">SARATH CHANDRA GENTELA</text>
<text x="68" y="120" font-family="monospace" font-size="13" letter-spacing="2" fill="#70d8e6">FOUNDING AI ENGINEER</text>
<text x="64" y="255" font-family="Arial,sans-serif" font-size="65" font-weight="700" letter-spacing="-3" fill="#e8f0f7">The systems</text>
<text x="64" y="335" font-family="Arial,sans-serif" font-size="65" font-weight="700" letter-spacing="-3" fill="#e8f0f7">behind <tspan fill="#70d8e6">reliable AI.</tspan></text>
<text x="68" y="414" font-family="Arial,sans-serif" font-size="20" fill="#b1c2d0">Agent harnesses · Search &amp; ranking</text>
<text x="68" y="447" font-family="Arial,sans-serif" font-size="20" fill="#b1c2d0">Durable AI infrastructure</text>
<path d="M918 238v46M918 366v47" stroke="#6d97ad" stroke-width="2"/>
<rect x="797" y="159" width="245" height="80" rx="7" fill="#152232" stroke="#afa3ff"/>
<text x="919" y="191" text-anchor="middle" font-family="monospace" font-size="11" fill="#afa3ff">REASONING</text>
<text x="919" y="217" text-anchor="middle" font-family="Arial,sans-serif" font-size="19" fill="#e8f0f7">Context → model</text>
<rect x="797" y="283" width="245" height="84" rx="7" fill="#16303a" stroke="#70d8e6"/>
<text x="919" y="316" text-anchor="middle" font-family="monospace" font-size="11" fill="#70d8e6">EXECUTION CONTROL</text>
<text x="919" y="343" text-anchor="middle" font-family="Arial,sans-serif" font-size="20" fill="#e8f0f7">Agent harness</text>
<rect x="797" y="412" width="245" height="80" rx="7" fill="#152232" stroke="#8eb69d"/>
<text x="919" y="444" text-anchor="middle" font-family="monospace" font-size="11" fill="#c3f086">STATE &amp; EVIDENCE</text>
<text x="919" y="470" text-anchor="middle" font-family="Arial,sans-serif" font-size="18" fill="#e8f0f7">PostgreSQL · SQS · S3</text>
<path d="M68 538h1064" stroke="#29404f"/>
<text x="68" y="584" font-family="monospace" font-size="14" fill="#8ca7bb">PRODUCTION ARCHITECTURE / PUBLIC CODE / ENGINEERING EVIDENCE</text>
<circle cx="1125" cy="580" r="5" fill="#c3f086"/>
</svg>
